<svg xmlns="http://www.w3.org/2000/svg" width="16" height="16">
  <path fill="#FFF" fill-rule="evenodd" d="M8 0c2.173 0 2.445.01 3.298.048.852.04 1.433.174 1.942.372.526.204.973.478 1.417.923.445.444.72.89.923 1.417.198.51.333 1.09.372 1.942.04.853.048 1.125.048 3.298s-.01 2.445-.048 3.298c-.04.852-.174 1.433-.372 1.942-.204.526-.478.973-.923 1.417-.444.445-.89.72-1.417.923-.51.198-1.09.333-1.942.372-.853.04-1.125.048-3.298.048s-2.445-.01-3.298-.048c-.852-.04-1.433-.174-1.942-.372-.526-.204-.973-.478-1.417-.923-.445-.444-.72-.89-.923-1.417-.198-.51-.333-1.09-.372-1.942C.008 10.445 0 10.173 0 8s.01-2.445.048-3.298C.088 3.85.222 3.27.42 2.76c.204-.526.478-.973.923-1.417.444-.445.89-.72 1.417-.923C3.27.222 3.85.087 4.702.048 5.555.008 5.827 0 8 0zm0 1.44c-2.136 0-2.39.01-3.233.048-.78.036-1.203.166-1.485.276-.374.145-.64.318-.92.598-.28.28-.453.546-.598.92-.11.282-.24.705-.276 1.485C1.45 5.61 1.44 5.864 1.44 8s.01 2.39.048 3.233c.036.78.166 1.203.276 1.485.145.374.318.64.598.92.28.28.546.453.92.598.282.11.705.24 1.485.276.844.038 1.097.047 3.233.047s2.39-.01 3.233-.05c.78-.036 1.203-.166 1.485-.276.374-.145.64-.318.92-.598.28-.28.453-.546.598-.92.11-.282.24-.705.276-1.485.038-.843.047-1.096.047-3.232s-.01-2.39-.05-3.234c-.036-.78-.166-1.203-.276-1.485-.145-.374-.318-.64-.598-.92-.28-.28-.546-.453-.92-.598-.282-.11-.705-.24-1.485-.276-.84-.036-1.094-.046-3.23-.046zm0 2.452c2.27 0 4.108 1.84 4.108 4.108 0 2.27-1.84 4.108-4.108 4.108-2.27 0-4.108-1.84-4.108-4.108 0-2.27 1.84-4.108 4.108-4.108zm0 6.775c1.473 0 2.667-1.194 2.667-2.667 0-1.473-1.194-2.667-2.667-2.667-1.473 0-2.667 1.194-2.667 2.667 0 1.473 1.194 2.667 2.667 2.667zm5.23-6.937c0 .53-.43.96-.96.96s-.96-.43-.96-.96.43-.96.96-.96.96.43.96.96z"/>
</svg>
