<?xml version="1.0" encoding="UTF-8" standalone="no"?>
<svg width="16px" height="16px" viewBox="0 0 16 16" version="1.1" xmlns="http://www.w3.org/2000/svg" xmlns:xlink="http://www.w3.org/1999/xlink">
    <!-- Generator: Sketch 45.1 (43504) - http://www.bohemiancoding.com/sketch -->
    <title>Instagram</title>
    <desc>Created with Sketch.</desc>
    <defs></defs>
    <g id="Web" stroke="none" stroke-width="1" fill="none" fill-rule="evenodd">
        <g id="Post" transform="translate(-987.000000, -3954.000000)" fill="#FFFFFF">
            <g id="Group-8" transform="translate(0.000000, 3762.000000)">
                <g id="socials" transform="translate(915.000000, 192.000000)">
                    <path d="M80.0000159,0 C82.1726696,0 82.4451047,0.00920925451 83.2983898,0.0481421718 C84.1498965,0.086979821 84.731445,0.222228838 85.240304,0.420005518 C85.7663747,0.624419212 86.2125155,0.897965827 86.6572907,1.34270931 C87.1020342,1.78748454 87.3755808,2.23362529 87.5800262,2.75969602 C87.7777712,3.26855496 87.9130202,3.8501035 87.9518578,4.70161023 C87.9907907,5.55489529 88,5.82733045 88,8.00001588 C88,10.1726696 87.9907907,10.4451047 87.9518578,11.2983898 C87.9130202,12.1498965 87.7777712,12.731445 87.5800262,13.240304 C87.3755808,13.7663747 87.1020342,14.2125155 86.6572907,14.6572907 C86.2125155,15.1020342 85.7663747,15.3755808 85.240304,15.5800262 C84.731445,15.7777712 84.1498965,15.9130202 83.2983898,15.9518578 C82.4451047,15.9907907 82.1726696,16 80.0000159,16 C77.8273304,16 77.5548953,15.9907907 76.7016102,15.9518578 C75.8501035,15.9130202 75.268555,15.7777712 74.759696,15.5800262 C74.2336253,15.3755808 73.7874845,15.1020342 73.3427093,14.6572907 C72.8979658,14.2125155 72.6244192,13.7663747 72.4200055,13.240304 C72.2222288,12.731445 72.0869798,12.1498965 72.0481422,11.2983898 C72.0092093,10.4451047 72,10.1726696 72,8.00001588 C72,5.82733045 72.0092093,5.55489529 72.0481422,4.70161023 C72.0869798,3.8501035 72.2222288,3.26855496 72.4200055,2.75969602 C72.6244192,2.23362529 72.8979658,1.78748454 73.3427093,1.34270931 C73.7874845,0.897965827 74.2336253,0.624419212 74.759696,0.420005518 C75.268555,0.222228838 75.8501035,0.086979821 76.7016102,0.0481421718 C77.5548953,0.00920925451 77.8273304,0 80.0000159,0 Z M80.0000159,1.44143887 C77.8639134,1.44143887 77.6108812,1.44960017 76.7673135,1.4880885 C75.9873214,1.52365528 75.5637274,1.65398211 75.281829,1.76354048 C74.9084096,1.90866563 74.6419128,2.08202191 74.3619832,2.36198324 C74.0820219,2.64191283 73.9086656,2.9084096 73.7635405,3.28182899 C73.6539821,3.56372745 73.5236553,3.9873214 73.4880885,4.7673135 C73.4496002,5.61088121 73.4414389,5.86391342 73.4414389,8.00001588 C73.4414389,10.1360866 73.4496002,10.3891188 73.4880885,11.2326865 C73.5236553,12.0126786 73.6539821,12.4362726 73.7635405,12.718171 C73.9086656,13.0915904 74.0820537,13.3580872 74.3619832,13.6380168 C74.6419128,13.9179781 74.9084096,14.0913344 75.281829,14.2364595 C75.5637274,14.3460179 75.9873214,14.4763447 76.7673135,14.5119115 C77.6107859,14.5503998 77.8637546,14.5585611 80.0000159,14.5585611 C82.1362454,14.5585611 82.3892458,14.5503998 83.2326865,14.5119115 C84.0126786,14.4763447 84.4362726,14.3460179 84.718171,14.2364595 C85.0915904,14.0913344 85.3580872,13.9179781 85.6380168,13.6380168 C85.9179781,13.3580872 86.0913344,13.0915904 86.2364595,12.718171 C86.3460179,12.4362726 86.4763447,12.0126786 86.5119115,11.2326865 C86.5503998,10.3891188 86.5585611,10.1360866 86.5585611,8.00001588 C86.5585611,5.86391342 86.5503998,5.61088121 86.5119115,4.7673135 C86.4763447,3.9873214 86.3460179,3.56372745 86.2364595,3.28182899 C86.0913344,2.9084096 85.9179781,2.64191283 85.6380168,2.36198324 C85.3580872,2.08202191 85.0915904,1.90866563 84.718171,1.76354048 C84.4362726,1.65398211 84.0126786,1.52365528 83.2326865,1.4880885 C82.3891188,1.44960017 82.1360866,1.44143887 80.0000159,1.44143887 Z M80.0000159,3.89189447 C82.2688586,3.89189447 84.1081055,5.73114137 84.1081055,8.00001588 C84.1081055,10.2688586 82.2688586,12.1081055 80.0000159,12.1081055 C77.7311414,12.1081055 75.8918945,10.2688586 75.8918945,8.00001588 C75.8918945,5.73114137 77.7311414,3.89189447 80.0000159,3.89189447 Z M80.0000159,10.6666667 C81.4727662,10.6666667 82.6666667,9.47276621 82.6666667,8.00001588 C82.6666667,6.52723379 81.4727662,5.33333333 80.0000159,5.33333333 C78.5272338,5.33333333 77.3333333,6.52723379 77.3333333,8.00001588 C77.3333333,9.47276621 78.5272338,10.6666667 80.0000159,10.6666667 Z M85.2304279,3.7295893 C85.2304279,4.25978831 84.8006097,4.68957469 84.2704107,4.68957469 C83.7402434,4.68957469 83.3104253,4.25978831 83.3104253,3.7295893 C83.3104253,3.19939028 83.7402434,2.76957215 84.2704107,2.76957215 C84.8006097,2.76957215 85.2304279,3.19939028 85.2304279,3.7295893 Z" id="Instagram"></path>
                </g>
            </g>
        </g>
    </g>
</svg>
