<svg xmlns="http://www.w3.org/2000/svg" width="23" height="22">
  <path fill="#4A90E2" d="M1 4h3.5v1.5c0 .276.224.5.5.5h7c.276 0 .5-.224.5-.5V4H22c.552 0 1-.448 1-1s-.448-1-1-1h-9.5V.5c0-.276-.224-.5-.5-.5H5c-.276 0-.5.224-.5.5V2H1c-.552 0-1 .448-1 1s.448 1 1 1zm21 6h-3V8.5c0-.276-.224-.5-.5-.5h-7c-.276 0-.5.224-.5.5V10H1c-.552 0-1 .448-1 1s.448 1 1 1h10v1.5c0 .276.224.5.5.5h7c.276 0 .5-.224.5-.5V12h3c.552 0 1-.448 1-1s-.448-1-1-1zm0 8h-9.5v-1.5c0-.276-.224-.5-.5-.5H5c-.276 0-.5.224-.5.5V18H1c-.552 0-1 .448-1 1s.448 1 1 1h3.5v1.5c0 .276.224.5.5.5h7c.276 0 .5-.224.5-.5V20H22c.552 0 1-.448 1-1s-.448-1-1-1z"/>
</svg>
