<svg xmlns="http://www.w3.org/2000/svg" width="14" height="14">
  <g fill="#FFF">
    <circle cx="1.75" cy="1.75" r="1.75"/>
    <path d="M3.208 4.667H.292c-.16 0-.292.13-.292.29v8.75c0 .162.13.293.292.293h2.916c.16 0 .292-.13.292-.292v-8.75c0-.16-.13-.29-.292-.29zm8.69-.402c-1.246-.427-2.806-.052-3.74.62-.033-.125-.147-.218-.283-.218H4.958c-.16 0-.29.13-.29.29v8.75c0 .162.13.293.29.293h2.917c.16 0 .292-.13.292-.292V7.42c.47-.406 1.078-.535 1.575-.324.482.203.758.7.758 1.362v5.25c0 .16.13.292.292.292h2.916c.16 0 .292-.13.292-.292V7.87c-.033-2.396-1.16-3.283-2.102-3.605z"/>
  </g>
</svg>
