<?xml version="1.0" encoding="UTF-8" standalone="no"?>
<svg width="22px" height="14px" viewBox="0 0 22 14" version="1.1" xmlns="http://www.w3.org/2000/svg" xmlns:xlink="http://www.w3.org/1999/xlink">
    <!-- Generator: Sketch 45.1 (43504) - http://www.bohemiancoding.com/sketch -->
    <title>GooglePlus</title>
    <desc>Created with Sketch.</desc>
    <defs></defs>
    <g id="Web" stroke="none" stroke-width="1" fill="none" fill-rule="evenodd">
        <g id="Post" transform="translate(-1023.000000, -3955.000000)" fill="#FFFFFF">
            <g id="Group-8" transform="translate(0.000000, 3762.000000)">
                <g id="socials" transform="translate(915.000000, 192.000000)">
                    <path d="M127.578616,6.75247525 L127.578616,4.32673267 L125.849057,4.32673267 L125.849057,6.75247525 L123.358491,6.75247525 L123.358491,8.48514851 L125.849057,8.48514851 L125.849057,10.980198 L127.578616,10.980198 L127.578616,8.48514851 L130,8.48514851 L130,6.75247525 L127.578616,6.75247525 L127.578616,6.75247525 Z M114.987421,6.61386139 L114.987421,9.38613861 C114.987421,9.38613861 117.671975,9.38253465 118.765057,9.38253465 C118.173132,11.1797327 117.25273,12.1584158 114.987421,12.1584158 C112.694925,12.1584158 110.90566,10.2966238 110.90566,8 C110.90566,5.70337624 112.694925,3.84158416 114.987421,3.84158416 C116.199497,3.84158416 116.982296,4.26837624 117.70034,4.86323762 C118.275107,4.28743564 118.227094,4.20537624 119.689403,2.82194059 C118.448063,1.6900198 116.798201,1 114.987421,1 C111.128358,1 108,4.1339901 108,8 C108,11.8659406 111.128358,15 114.987421,15 C120.755642,15 122.165509,9.96831683 121.698113,6.61386139 L114.987421,6.61386139 L114.987421,6.61386139 Z" id="GooglePlus"></path>
                </g>
            </g>
        </g>
    </g>
</svg>
