<svg xmlns="http://www.w3.org/2000/svg" width="20" height="21">
  <g fill="#4A90E2">
    <path d="M19.5 21h-18C.95 21 0 20.55 0 20v-5c0-.552.448-1 1-1s1 .448 1 1v4h16v-4c0-.552.448-1 1-1s1 .448 1 1v5c0 .55.05 1-.5 1z"/>
    <path d="M18 7.55c-.39-.388-1.02-.388-1.41 0l-5.11 4.92V.89c-.004-.254-.115-.494-.305-.66-.19-.17-.443-.248-.695-.22-.25-.028-.5.05-.69.215-.19.166-.303.403-.31.655V12.4l-5-4.86c-.26-.255-.638-.352-.99-.254-.35.098-.624.376-.715.73-.09.353.014.73.275.984l6.69 6.51c.062.048.13.088.2.12h.57c.187-.034.36-.12.5-.25L17.94 9c.207-.18.33-.438.342-.712.01-.274-.09-.54-.282-.738z"/>
  </g>
</svg>
