<svg xmlns="http://www.w3.org/2000/svg" width="16" height="14">
  <path fill="#FFF" fill-rule="evenodd" d="M16 1.578c-.588.268-1.22.45-1.885.53.678-.416 1.198-1.076 1.444-1.86-.64.384-1.34.664-2.09.814C12.87.408 12.02 0 11.07 0 9.258 0 7.79 1.507 7.79 3.366c0 .264.027.52.083.766C5.15 3.992 2.73 2.652 1.11.614c-.28.5-.44 1.078-.44 1.694 0 1.168.58 2.198 1.46 2.802-.537-.016-1.044-.17-1.488-.42v.04c0 1.633 1.132 2.994 2.635 3.302-.276.08-.566.118-.865.118-.212 0-.418-.02-.618-.06.418 1.337 1.63 2.31 3.066 2.337-1.123.903-2.54 1.442-4.077 1.442-.265 0-.527-.02-.783-.05 1.453.95 3.18 1.51 5.032 1.51 6.038 0 9.34-5.13 9.34-9.58 0-.15-.003-.297-.01-.44.643-.475 1.2-1.067 1.638-1.743"/>
</svg>
